<?xml version="1.0" encoding="utf-8"?>
<!-- Generator: Adobe Illustrator 17.0.0, SVG Export Plug-In . SVG Version: 6.00 Build 0)  -->
<!DOCTYPE svg PUBLIC "-//W3C//DTD SVG 1.1//EN" "http://www.w3.org/Graphics/SVG/1.1/DTD/svg11.dtd">
<svg version="1.1" id="Layer_1" xmlns="http://www.w3.org/2000/svg" xmlns:xlink="http://www.w3.org/1999/xlink" x="0px" y="0px"
	 width="500px" height="140.993px" viewBox="0 0 500 140.993" enable-background="new 0 0 500 140.993" xml:space="preserve">
<g>
	<g>
		<path fill="#4257B2" d="M168.161,61.204l-11.055,28.107h4.271l2.202-5.824H176.2h0.438l2.154,5.824h4.317L172.1,61.204H168.161z
			 M175.791,80.243H164.32l5.765-14.964l5.381,14.111L175.791,80.243z"/>
		<path fill="#4257B2" d="M205.381,74.863c-1.433-1.325-3.584-2.01-6.426-2.011H196.9c-0.972-0.001-1.804-0.05-2.525-0.199
			c-0.718-0.149-1.343-0.405-1.833-0.845c-0.325-0.292-0.578-0.661-0.748-1.083c-0.228-0.564-0.32-1.216-0.321-1.977
			c0.001-0.852,0.108-1.566,0.392-2.175c0.281-0.609,0.763-1.08,1.363-1.369c0.4-0.195,0.849-0.322,1.35-0.408
			c0.668-0.113,1.433-0.152,2.321-0.152h9.795v-3.343h-9.991c-2.182-0.001-4.062,0.305-5.526,0.962
			c-1.465,0.661-2.519,1.64-3.163,3.082c-0.427,0.964-0.666,2.149-0.666,3.598c0,1.41,0.239,2.557,0.658,3.486
			c0.421,0.929,1.021,1.649,1.79,2.217c1.532,1.136,3.798,1.648,6.515,1.645h2.202c0.931,0.001,1.723,0.078,2.411,0.288
			c0.685,0.208,1.274,0.571,1.694,1.107c0.281,0.355,0.483,0.775,0.621,1.246c0.183,0.629,0.258,1.352,0.258,2.197
			c0,0.869-0.128,1.619-0.395,2.262c-0.265,0.642-0.678,1.169-1.196,1.557c-1.045,0.778-2.428,1.016-4.03,1.019l-9.942,0v3.343
			h10.138c2.057,0.001,3.928-0.361,5.441-1.098c1.514-0.74,2.671-1.835,3.375-3.367c0.468-1.023,0.735-2.25,0.735-3.716
			c0-1.458-0.206-2.699-0.588-3.734C206.655,76.361,206.1,75.528,205.381,74.863z"/>
		<path fill="#4257B2" d="M230.829,74.863c-1.433-1.325-3.584-2.01-6.426-2.011h-2.055c-0.972-0.001-1.804-0.05-2.525-0.199
			c-0.718-0.149-1.343-0.405-1.833-0.845c-0.325-0.292-0.578-0.661-0.748-1.083c-0.228-0.564-0.32-1.216-0.321-1.977
			c0.001-0.852,0.108-1.566,0.392-2.175c0.281-0.609,0.763-1.08,1.363-1.369c0.4-0.195,0.849-0.322,1.35-0.408
			c0.668-0.113,1.433-0.152,2.321-0.152h9.795v-3.343h-9.991c-2.182-0.001-4.062,0.305-5.526,0.962
			c-1.465,0.661-2.519,1.64-3.163,3.082c-0.427,0.964-0.666,2.149-0.666,3.598c0,1.41,0.239,2.557,0.658,3.486
			c0.421,0.929,1.021,1.649,1.79,2.217c1.532,1.136,3.798,1.648,6.515,1.645h2.202c0.931,0.001,1.723,0.078,2.411,0.288
			c0.685,0.208,1.274,0.571,1.694,1.107c0.281,0.355,0.483,0.775,0.621,1.246c0.183,0.629,0.258,1.352,0.258,2.197
			c0,0.869-0.128,1.619-0.395,2.262c-0.265,0.642-0.678,1.169-1.196,1.557c-1.045,0.778-2.428,1.016-4.03,1.019l-9.942,0v3.343
			h10.138c2.057,0.001,3.928-0.361,5.441-1.098c1.514-0.74,2.671-1.835,3.375-3.367c0.468-1.023,0.735-2.25,0.735-3.716
			c0-1.458-0.206-2.699-0.588-3.734C232.102,76.361,231.548,75.528,230.829,74.863z"/>
		<rect x="239.321" y="61.302" fill="#4257B2" width="4.028" height="28.009"/>
		<polygon fill="#4257B2" points="250.968,61.302 250.968,89.311 254.849,89.311 254.849,66.977 271.795,89.311 275.062,89.311 
			275.062,61.302 271.328,61.302 271.328,83.245 254.676,61.302 		"/>
		<path fill="#4257B2" d="M307.197,65.001c-2.754-2.543-6.552-4.042-10.708-4.042c-4.13,0-7.916,1.499-10.664,4.042
			c-2.747,2.546-4.464,6.123-4.466,10.355c0.002,4.206,1.718,7.758,4.464,10.286c2.747,2.525,6.534,4.013,10.666,4.013
			c4.157,0,7.956-1.488,10.71-4.013c2.753-2.528,4.468-6.079,4.47-10.285C311.667,71.124,309.95,67.547,307.197,65.001z
			 M304.239,83.141c-1.985,1.933-4.729,3.073-7.75,3.072c-2.998,0.001-5.729-1.14-7.707-3.073c-1.979-1.931-3.201-4.66-3.199-7.785
			c-0.002-3.148,1.219-5.9,3.197-7.85c1.977-1.952,4.709-3.106,7.709-3.105c3.023-0.001,5.768,1.153,7.752,3.105
			c1.985,1.95,3.206,4.703,3.204,7.851C307.447,78.48,306.225,81.21,304.239,83.141z"/>
		<polygon fill="#4257B2" points="300.71,56.472 302.853,54.465 298.302,50.339 294.729,50.339 290.267,54.461 292.412,56.47 
			296.535,52.347 		"/>
		<polygon fill="#4257B2" points="341.605,61.302 331.092,73.424 320.428,61.302 317.965,61.302 317.965,89.311 321.895,89.311 
			321.895,67.829 329.763,77.027 332.364,77.027 340.184,67.819 340.184,89.311 344.212,89.311 344.212,61.302 		"/>
		<polygon fill="#4257B2" points="370.296,85.968 355.858,85.968 355.858,76.244 369.66,76.244 369.66,72.901 355.858,72.901 
			355.858,65.274 355.858,64.645 370.296,64.645 370.296,61.302 351.83,61.302 351.83,89.311 370.296,89.311 		"/>
		<polygon fill="#4257B2" points="384.031,89.311 388.06,89.311 388.06,64.645 397.358,64.645 397.358,61.302 374.733,61.302 
			374.733,64.645 384.031,64.645 		"/>
		<path fill="#4257B2" d="M418.279,76.869c1.401-0.506,2.661-1.333,3.572-2.535c0.91-1.204,1.491-2.789,1.494-4.9
			c0-1.475-0.278-2.703-0.758-3.723c-0.481-1.02-1.165-1.838-2.012-2.489c-1.69-1.301-4.064-1.921-6.634-1.92h-11.166v28.009h4.028
			V77.565h6.622l6.705,11.746h4.604l-7.168-12.186L418.279,76.869z M413.451,74.321h-6.02h-0.629v-9.676h6.943
			c1.212,0.001,2.27,0.162,3.155,0.576c0.884,0.409,1.579,1.109,1.95,2.049c0.25,0.625,0.369,1.345,0.369,2.164
			c0.001,1.275-0.266,2.322-0.86,3.121c-0.594,0.801-1.483,1.287-2.536,1.531C415.117,74.252,414.328,74.32,413.451,74.321z"/>
		<path fill="#4257B2" d="M454.501,65.001c-2.754-2.543-6.552-4.042-10.708-4.042c-4.13,0-7.916,1.499-10.664,4.042
			c-2.747,2.546-4.464,6.123-4.466,10.355c0.002,4.206,1.718,7.758,4.465,10.286c2.747,2.525,6.534,4.013,10.666,4.013
			c4.157,0,7.956-1.488,10.71-4.013c2.753-2.528,4.468-6.079,4.47-10.285C458.971,71.124,457.254,67.547,454.501,65.001z
			 M451.543,83.141c-1.985,1.933-4.729,3.073-7.75,3.072c-2.998,0.001-5.729-1.14-7.707-3.073c-1.979-1.931-3.201-4.66-3.199-7.785
			c-0.002-3.148,1.219-5.9,3.197-7.85c1.977-1.952,4.709-3.106,7.709-3.105c3.023-0.001,5.768,1.153,7.752,3.105
			c1.985,1.95,3.206,4.703,3.204,7.851C454.751,78.48,453.529,81.21,451.543,83.141z"/>
	</g>
	<path fill="#4257B2" d="M84.312,53.098c-2.116,1.311-3.85,3.173-5.005,5.39c-0.997,1.912-1.56,4.091-1.56,6.391
		c-0.003,2.651,0.67,5.042,1.939,7.037c1.266,1.998,3.103,3.581,5.322,4.736c1.502,0.782,3.189,1.366,5.015,1.781l0,21.585
		c-1.198-0.176-2.331-0.546-3.366-1.085c-1.712-0.892-3.157-2.237-4.17-3.872c-1.013-1.637-1.596-3.558-1.597-5.628
		c0-0.868-0.704-1.572-1.572-1.572c-0.868,0-1.572,0.704-1.572,1.572c-0.001,2.667,0.758,5.169,2.068,7.284
		c1.311,2.116,3.173,3.85,5.39,5.005c1.47,0.766,3.099,1.274,4.819,1.468l0,3.734c0,0.868,0.704,1.572,1.572,1.572
		c0.868,0,1.572-0.704,1.572-1.572v-3.739c2.075-0.235,4.019-0.922,5.712-1.972c2.116-1.311,3.85-3.173,5.005-5.39
		c0.997-1.912,1.56-4.091,1.56-6.391c0.004-2.706-0.798-5.136-2.168-7.134c-1.368-2.002-3.278-3.577-5.476-4.722
		c-1.435-0.747-2.999-1.307-4.633-1.694l0-21.589c1.199,0.176,2.331,0.546,3.366,1.085c1.712,0.892,3.157,2.237,4.17,3.872
		c1.013,1.637,1.596,3.558,1.597,5.628c0,0.868,0.704,1.572,1.572,1.572c0.868,0,1.572-0.704,1.572-1.572
		c0.001-2.667-0.757-5.17-2.068-7.284c-1.311-2.116-3.173-3.85-5.39-5.005c-1.47-0.766-3.099-1.273-4.819-1.468l0-3.734
		c0-0.868-0.704-1.572-1.572-1.572c-0.868,0-1.572,0.704-1.572,1.572v3.739C87.949,51.362,86.005,52.049,84.312,53.098z
		 M96.348,80.366c1.816,0.946,3.305,2.201,4.333,3.707c1.026,1.509,1.616,3.264,1.62,5.361c0,1.786-0.435,3.46-1.204,4.938
		c-0.892,1.712-2.237,3.157-3.872,4.17c-1.214,0.751-2.584,1.265-4.056,1.481l0-20.888C94.298,79.451,95.372,79.858,96.348,80.366z
		 M90.024,54.291l0,20.908c-1.319-0.346-2.518-0.79-3.562-1.334c-1.815-0.947-3.187-2.162-4.12-3.632
		c-0.93-1.472-1.447-3.22-1.451-5.353c0-1.787,0.435-3.461,1.204-4.938c0.892-1.712,2.237-3.157,3.872-4.17
		C87.182,55.02,88.552,54.507,90.024,54.291z"/>
	<path fill="#4257B2" d="M93.374,25.143v-3.855h9.905c0.414,0,0.819-0.168,1.112-0.46c0.293-0.293,0.461-0.698,0.461-1.112v-7.337
		c0-0.414-0.168-0.819-0.461-1.112c-0.293-0.293-0.698-0.46-1.112-0.46H79.8c-0.414,0-0.819,0.168-1.112,0.46
		c-0.293,0.293-0.46,0.698-0.46,1.112v7.337c0,0.414,0.168,0.819,0.461,1.112c0.293,0.293,0.698,0.46,1.112,0.46h10.429v3.855
		C62.216,25.977,39.76,48.93,39.759,77.145c0.001,28.743,23.3,52.042,52.043,52.042c28.743-0.001,52.042-23.3,52.043-52.042
		C143.843,48.93,121.387,25.977,93.374,25.143z M81.372,13.95h20.335v4.193H81.372V13.95z M126.822,112.166
		c-8.967,8.965-21.34,14.505-35.021,14.506c-13.68-0.001-26.054-5.542-35.021-14.506c-8.965-8.967-14.505-21.34-14.506-35.021
		c0.001-13.681,5.542-26.054,14.506-35.021c8.967-8.965,21.34-14.506,35.021-14.506c13.68,0.001,26.054,5.542,35.021,14.506
		c8.965,8.967,14.505,21.34,14.506,35.021C141.328,90.826,135.787,103.199,126.822,112.166z"/>
	<g>
		<path fill="#4257B2" d="M135.043,75.573c-0.868,0-1.572,0.704-1.572,1.572h0c-0.001,11.511-4.661,21.917-12.204,29.462
			c-7.545,7.542-17.951,12.203-29.462,12.204c-9.211,0-17.718-2.987-24.615-8.045v-0.018c-2.03-1.489-3.923-3.153-5.653-4.974
			c-0.016-0.017-0.032-0.035-0.049-0.052c-0.285-0.301-0.564-0.608-0.84-0.917c-0.107-0.12-0.213-0.241-0.318-0.362
			c-0.181-0.207-0.358-0.418-0.534-0.629c-0.137-0.165-0.275-0.328-0.41-0.495c-0.138-0.171-0.272-0.344-0.408-0.517
			c-0.129-0.165-0.26-0.328-0.387-0.495l0.867-0.458c0.397-0.21,0.653-0.616,0.67-1.065c0.017-0.449-0.207-0.873-0.587-1.112
			l-4.581-2.881c-0.38-0.239-0.86-0.257-1.257-0.048c-0.397,0.21-0.653,0.616-0.67,1.065l-0.205,5.408
			c-0.017,0.449,0.207,0.873,0.587,1.112c0.38,0.239,0.86,0.257,1.257,0.048l1.103-0.582c0.026,0.035,0.053,0.067,0.079,0.102
			c0.36,0.484,0.729,0.961,1.109,1.43c0.028,0.034,0.056,0.068,0.084,0.102c0.367,0.45,0.743,0.892,1.126,1.327
			c0.049,0.055,0.097,0.111,0.146,0.166c0.851,0.957,1.743,1.876,2.673,2.757c0.007,0.006,0.013,0.013,0.02,0.019
			c8.028,7.596,18.868,12.26,30.791,12.26c24.748-0.001,44.809-20.062,44.81-44.81C136.616,76.277,135.912,75.573,135.043,75.573z"
			/>
		<path fill="#4257B2" d="M62.344,47.683c7.545-7.542,17.951-12.203,29.462-12.204c9.51,0,18.268,3.186,25.279,8.547v0.025
			c2.981,2.28,5.657,4.94,7.927,7.931l-0.87,0.459c-0.397,0.21-0.653,0.616-0.67,1.065c-0.017,0.449,0.207,0.873,0.587,1.112
			l4.581,2.881c0.38,0.239,0.86,0.257,1.257,0.048c0.397-0.21,0.653-0.616,0.67-1.065l0.205-5.408
			c0.017-0.449-0.207-0.873-0.587-1.112c-0.38-0.239-0.86-0.257-1.257-0.048l-1.1,0.58c-8.159-11.014-21.26-18.161-36.022-18.161
			c-24.748,0.001-44.809,20.062-44.81,44.81c0,0.868,0.704,1.572,1.572,1.572c0.868,0,1.572-0.704,1.572-1.572h0
			C50.141,65.635,54.801,55.228,62.344,47.683z"/>
	</g>
</g>
</svg>
