<?xml version="1.0" encoding="utf-8"?>
<!-- Generator: Adobe Illustrator 17.0.0, SVG Export Plug-In . SVG Version: 6.00 Build 0)  -->
<!DOCTYPE svg PUBLIC "-//W3C//DTD SVG 1.1//EN" "http://www.w3.org/Graphics/SVG/1.1/DTD/svg11.dtd">
<svg version="1.1" id="Layer_1" xmlns="http://www.w3.org/2000/svg" xmlns:xlink="http://www.w3.org/1999/xlink" x="0px" y="0px"
	 width="1198px" height="367.819px" viewBox="0 0 1198 367.819" enable-background="new 0 0 1198 367.819" xml:space="preserve">
<rect x="-77.031" y="0" fill="#4257B2" width="1316.177" height="389.105"/>
<g>
	<g>
		<path fill="#FFFFFF" d="M371.428,155.37l-30.823,78.364h11.907l6.14-16.238h35.189h1.221l6.005,16.238h12.036l-30.693-78.364
			H371.428z M392.703,208.45H360.72l16.074-41.721l15.002,39.342L392.703,208.45z"/>
		<path fill="#FFFFFF" d="M475.2,193.452c-3.995-3.694-9.991-5.605-17.915-5.607h-5.73c-2.711-0.001-5.028-0.139-7.04-0.555
			c-2.003-0.416-3.744-1.129-5.109-2.357c-0.907-0.814-1.611-1.843-2.084-3.02c-0.635-1.573-0.892-3.389-0.894-5.511
			c0.003-2.374,0.301-4.366,1.092-6.063c0.782-1.698,2.127-3.012,3.801-3.816c1.116-0.545,2.367-0.899,3.763-1.137
			c1.863-0.315,3.994-0.424,6.47-0.425h27.31v-9.321h-27.856c-6.083-0.003-11.326,0.851-15.407,2.682
			c-4.086,1.843-7.023,4.572-8.818,8.594c-1.191,2.688-1.858,5.992-1.858,10.031c0,3.932,0.665,7.128,1.836,9.718
			c1.174,2.591,2.846,4.597,4.99,6.182c4.271,3.167,10.59,4.594,18.164,4.587h6.141c2.595,0.002,4.805,0.217,6.723,0.804
			c1.911,0.58,3.551,1.591,4.723,3.085c0.782,0.99,1.347,2.161,1.731,3.474c0.511,1.754,0.719,3.768,0.721,6.125
			c0,2.422-0.356,4.515-1.1,6.307c-0.74,1.79-1.889,3.258-3.335,4.34c-2.914,2.168-6.769,2.832-11.237,2.841l-27.72,0v9.321h28.266
			c5.734,0.002,10.953-1.007,15.169-3.061c4.221-2.062,7.446-5.115,9.41-9.386c1.306-2.852,2.049-6.274,2.049-10.361
			c0-4.066-0.575-7.525-1.64-10.412C478.751,197.626,477.205,195.306,475.2,193.452z"/>
		<path fill="#FFFFFF" d="M546.149,193.452c-3.995-3.694-9.991-5.605-17.915-5.607h-5.729c-2.711-0.001-5.028-0.139-7.04-0.555
			c-2.003-0.416-3.744-1.129-5.109-2.357c-0.907-0.814-1.611-1.843-2.084-3.02c-0.635-1.573-0.892-3.389-0.894-5.511
			c0.003-2.374,0.301-4.366,1.092-6.063c0.782-1.698,2.127-3.012,3.801-3.816c1.116-0.545,2.367-0.899,3.763-1.137
			c1.863-0.315,3.994-0.424,6.47-0.425h27.31v-9.321h-27.857c-6.083-0.003-11.326,0.851-15.407,2.682
			c-4.086,1.843-7.023,4.572-8.818,8.594c-1.191,2.688-1.858,5.992-1.858,10.031c0,3.932,0.665,7.128,1.836,9.718
			c1.174,2.591,2.846,4.597,4.99,6.182c4.271,3.167,10.59,4.594,18.164,4.587h6.141c2.595,0.002,4.805,0.217,6.723,0.804
			c1.911,0.58,3.551,1.591,4.723,3.085c0.782,0.99,1.347,2.161,1.731,3.474c0.511,1.754,0.719,3.768,0.721,6.125
			c0,2.422-0.356,4.515-1.1,6.307c-0.74,1.79-1.889,3.258-3.335,4.34c-2.914,2.168-6.769,2.832-11.237,2.841l-27.72,0v9.321h28.266
			c5.734,0.002,10.953-1.007,15.169-3.061c4.221-2.062,7.446-5.115,9.41-9.386c1.306-2.852,2.049-6.274,2.049-10.361
			c0-4.066-0.575-7.525-1.64-10.412C549.7,197.626,548.155,195.306,546.149,193.452z"/>
		<rect x="569.827" y="155.642" fill="#FFFFFF" width="11.23" height="78.092"/>
		<polygon fill="#FFFFFF" points="602.3,155.642 602.3,233.734 613.121,233.734 613.121,171.465 660.365,233.734 669.476,233.734 
			669.476,155.642 659.065,155.642 659.065,216.82 612.639,155.642 		"/>
		<path fill="#FFFFFF" d="M759.07,165.957c-7.678-7.09-18.268-11.269-29.855-11.27c-11.515,0-22.071,4.178-29.732,11.268
			c-7.659,7.098-12.445,17.071-12.452,28.869c0.007,11.726,4.789,21.629,12.447,28.678c7.66,7.041,18.218,11.188,29.737,11.188
			c11.59,0,22.183-4.149,29.859-11.189c7.674-7.048,12.456-16.95,12.463-28.676C771.531,183.027,766.745,173.054,759.07,165.957z
			 M750.822,216.532c-5.533,5.39-13.184,8.567-21.607,8.565c-8.359,0.002-15.974-3.178-21.488-8.567
			c-5.518-5.384-8.925-12.993-8.92-21.705c-0.004-8.777,3.398-16.45,8.914-21.887c5.512-5.442,13.13-8.66,21.494-8.658
			c8.429-0.002,16.083,3.214,21.613,8.656c5.535,5.437,8.938,13.112,8.933,21.889C759.766,203.537,756.359,211.147,750.822,216.532z
			"/>
		<polygon fill="#FFFFFF" points="740.984,142.177 746.959,136.581 734.269,125.077 724.307,125.077 711.868,136.569 
			717.849,142.17 729.344,130.675 		"/>
		<polygon fill="#FFFFFF" points="854.999,155.642 825.689,189.44 795.958,155.642 789.09,155.642 789.09,233.734 800.048,233.734 
			800.048,173.839 821.984,199.484 829.235,199.484 851.04,173.813 851.039,233.734 862.269,233.734 862.269,155.642 		"/>
		<polygon fill="#FFFFFF" points="934.993,224.414 894.739,224.414 894.739,197.301 933.219,197.301 933.219,187.982 
			894.739,187.982 894.739,166.716 894.739,164.963 934.993,164.963 934.993,155.642 883.509,155.642 883.509,233.734 
			934.993,233.734 		"/>
		<polygon fill="#FFFFFF" points="973.287,233.734 984.519,233.734 984.519,164.963 1010.444,164.963 1010.444,155.642 
			947.362,155.642 947.362,164.963 973.288,164.963 		"/>
		<path fill="#FFFFFF" d="M1068.771,199.043c3.906-1.41,7.42-3.718,9.96-7.069c2.537-3.356,4.157-7.777,4.164-13.66
			c-0.001-4.113-0.774-7.536-2.112-10.38c-1.341-2.844-3.249-5.124-5.611-6.94c-4.713-3.627-11.33-5.356-18.496-5.352h-31.131
			v78.092h11.23v-32.749h18.463l18.694,32.749h12.836l-19.985-33.974L1068.771,199.043z M1055.311,191.939h-16.783h-1.754v-26.976
			h19.356c3.38,0.003,6.33,0.451,8.797,1.605c2.466,1.141,4.402,3.091,5.437,5.712c0.698,1.743,1.028,3.751,1.028,6.034
			c0.002,3.555-0.74,6.473-2.398,8.701c-1.655,2.232-4.135,3.587-7.071,4.27C1059.958,191.747,1057.758,191.938,1055.311,191.939z"
			/>
		<path fill="#FFFFFF" d="M1169.763,165.957c-7.678-7.09-18.268-11.269-29.855-11.27c-11.515,0-22.071,4.178-29.732,11.268
			c-7.659,7.098-12.445,17.071-12.452,28.869c0.007,11.726,4.789,21.629,12.447,28.678c7.66,7.041,18.218,11.188,29.737,11.188
			c11.59,0,22.183-4.149,29.859-11.189c7.674-7.048,12.456-16.95,12.463-28.676C1182.224,183.027,1177.438,173.054,1169.763,165.957
			z M1161.515,216.532c-5.533,5.39-13.184,8.567-21.607,8.565c-8.359,0.002-15.974-3.178-21.488-8.567
			c-5.518-5.384-8.925-12.993-8.92-21.705c-0.004-8.777,3.398-16.45,8.914-21.887c5.512-5.442,13.13-8.66,21.494-8.658
			c8.429-0.002,16.083,3.214,21.613,8.656c5.535,5.437,8.938,13.112,8.933,21.889
			C1170.459,203.537,1167.052,211.147,1161.515,216.532z"/>
	</g>
	<path fill="#FFFFFF" d="M137.652,132.77c-5.899,3.655-10.733,8.846-13.955,15.027c-2.779,5.33-4.35,11.406-4.349,17.819
		c-0.009,7.391,1.869,14.057,5.407,19.621c3.53,5.572,8.65,9.985,14.839,13.205c4.187,2.181,8.891,3.808,13.982,4.964l0,60.181
		c-3.341-0.491-6.499-1.523-9.384-3.025c-4.774-2.486-8.801-6.236-11.625-10.796c-2.824-4.563-4.451-9.919-4.453-15.692
		c0-2.421-1.963-4.384-4.384-4.384c-2.421,0-4.384,1.963-4.384,4.384c-0.002,7.435,2.112,14.413,5.767,20.309
		c3.655,5.898,8.846,10.733,15.027,13.954c4.099,2.137,8.641,3.551,13.435,4.094l0,10.41c0,2.421,1.963,4.384,4.384,4.384
		c2.421,0,4.384-1.963,4.384-4.384v-10.424c5.786-0.656,11.206-2.572,15.925-5.497c5.899-3.655,10.733-8.846,13.954-15.027
		c2.779-5.33,4.351-11.407,4.349-17.819c0.011-7.544-2.226-14.319-6.044-19.89c-3.815-5.582-9.14-9.972-15.268-13.165
		c-4.001-2.084-8.361-3.645-12.916-4.724l0-60.192c3.342,0.491,6.499,1.523,9.384,3.025c4.774,2.486,8.801,6.236,11.625,10.796
		c2.824,4.563,4.451,9.919,4.453,15.692c0,2.421,1.963,4.384,4.383,4.384c2.421,0,4.384-1.963,4.384-4.383
		c0.002-7.435-2.112-14.413-5.767-20.309c-3.655-5.899-8.846-10.733-15.027-13.955c-4.099-2.137-8.641-3.551-13.435-4.093l0-10.41
		c0-2.421-1.963-4.384-4.384-4.384s-4.384,1.963-4.384,4.384v10.424C147.792,127.929,142.372,129.844,137.652,132.77z
		 M171.21,208.794c5.063,2.638,9.215,6.138,12.079,10.334c2.861,4.208,4.506,9.101,4.517,14.946
		c-0.001,4.98-1.212,9.648-3.357,13.768c-2.486,4.774-6.236,8.801-10.796,11.625c-3.384,2.095-7.206,3.526-11.308,4.129l0-58.236
		C165.494,206.242,168.49,207.376,171.21,208.794z M153.577,136.094l0,58.291c-3.678-0.965-7.021-2.202-9.932-3.719
		c-5.061-2.641-8.884-6.027-11.486-10.125c-2.594-4.105-4.035-8.978-4.044-14.925c0.001-4.981,1.213-9.648,3.357-13.768
		c2.486-4.774,6.236-8.801,10.796-11.625C145.653,138.128,149.475,136.697,153.577,136.094z"/>
	<path fill="#FFFFFF" d="M162.917,54.828V44.079h27.617c1.154,0,2.283-0.467,3.1-1.284c0.816-0.816,1.284-1.945,1.284-3.1V19.239
		c0-1.155-0.468-2.283-1.284-3.1c-0.816-0.816-1.945-1.284-3.1-1.284h-65.462c-1.154,0-2.284,0.467-3.1,1.284
		c-0.816,0.816-1.284,1.945-1.284,3.1v20.457c0,1.154,0.468,2.283,1.284,3.1c0.816,0.816,1.945,1.284,3.1,1.284h29.078v10.749
		c-78.103,2.325-140.712,66.32-140.714,144.987c0.002,80.136,64.961,145.095,145.098,145.097
		c80.137-0.002,145.095-64.961,145.098-145.097C303.629,121.148,241.021,57.153,162.917,54.828z M129.456,23.622h56.695v11.69
		h-56.695V23.622z M256.174,297.454c-24.999,24.994-59.498,40.442-97.64,40.444c-38.142-0.002-72.641-15.45-97.64-40.444
		c-24.994-24.999-40.442-59.498-40.444-97.64c0.002-38.142,15.45-72.641,40.444-97.64c24.999-24.994,59.498-40.442,97.64-40.444
		c38.142,0.002,72.641,15.45,97.64,40.444c24.994,24.999,40.442,59.498,40.444,97.64
		C296.616,237.956,281.167,272.455,256.174,297.454z"/>
	<g>
		<path fill="#FFFFFF" d="M279.095,195.431c-2.421,0-4.384,1.963-4.384,4.383h0c-0.002,32.092-12.996,61.106-34.024,82.142
			c-21.036,21.029-50.049,34.022-82.142,34.024c-25.68,0-49.4-8.327-68.627-22.43v-0.05c-5.659-4.151-10.938-8.79-15.761-13.867
			c-0.045-0.048-0.09-0.097-0.135-0.145c-0.794-0.839-1.572-1.695-2.341-2.558c-0.297-0.335-0.593-0.671-0.886-1.009
			c-0.503-0.578-0.998-1.164-1.49-1.752c-0.383-0.459-0.767-0.916-1.143-1.38c-0.385-0.475-0.76-0.96-1.137-1.442
			c-0.36-0.46-0.725-0.916-1.078-1.381l2.419-1.277c1.108-0.585,1.82-1.716,1.867-2.969c0.048-1.252-0.577-2.434-1.637-3.101
			l-12.771-8.034c-1.061-0.667-2.396-0.718-3.504-0.133c-1.108,0.585-1.82,1.716-1.867,2.969l-0.572,15.077
			c-0.047,1.252,0.577,2.434,1.637,3.101c1.061,0.667,2.396,0.718,3.504,0.133l3.074-1.623c0.071,0.096,0.148,0.188,0.22,0.284
			c1.005,1.349,2.033,2.68,3.091,3.986c0.077,0.095,0.157,0.188,0.235,0.284c1.022,1.255,2.071,2.487,3.141,3.701
			c0.136,0.154,0.27,0.31,0.407,0.463c2.373,2.667,4.86,5.23,7.451,7.685c0.019,0.018,0.037,0.036,0.056,0.054
			c22.383,21.179,52.604,34.181,85.847,34.181c69-0.003,124.93-55.933,124.933-124.933
			C283.478,197.393,281.516,195.431,279.095,195.431z"/>
		<path fill="#FFFFFF" d="M76.404,117.673c21.036-21.029,50.049-34.022,82.142-34.024c26.513,0,50.933,8.883,70.48,23.829v0.069
			c8.311,6.358,15.772,13.773,22.102,22.112l-2.427,1.281c-1.108,0.585-1.82,1.716-1.867,2.969
			c-0.048,1.252,0.577,2.434,1.637,3.101l12.771,8.034c1.06,0.667,2.396,0.718,3.504,0.133c1.108-0.585,1.82-1.717,1.867-2.969
			l0.572-15.077c0.047-1.252-0.577-2.434-1.637-3.101c-1.061-0.667-2.396-0.718-3.504-0.133l-3.066,1.618
			c-22.748-30.708-59.275-50.633-100.433-50.633c-69,0.003-124.93,55.933-124.933,124.933c0,2.421,1.963,4.384,4.384,4.384
			c2.421,0,4.384-1.963,4.384-4.384h0C42.382,167.722,55.375,138.708,76.404,117.673z"/>
	</g>
</g>
</svg>
